# xmcd
# 
# Track frame offsets:
#     150
#     18712
#     34732
#     55267
#     72097
#     90879
#     108530
#     129695
#     151127
#     172395
#     192895
# 
# Disc length: 2870
# 
# Revision: 2
# Processed by: cddbd v1.5.2PL0 Copyright (c) Steve Scherf et al.
# Submitted via: fre:ac v1.0.31
# 
DISCID=920b340b
DTITLE=Diomedes Díaz - Un Canto Celestial
DYEAR=1995
DGENRE=Vallenato
TTITLE0=Un Canto Celestial
TTITLE1=No Tiene Na'
TTITLE2=Amor De Mi Juventud
TTITLE3=En Buenas Manos
TTITLE4=Gracias Por Quererla
TTITLE5=Así No Se Puede Vivir
TTITLE6=No Comprendo
TTITLE7=Manguito Biche
TTITLE8=Volvamos
TTITLE9=Me Acompaño La Suerte
TTITLE10=El Cambio
EXTD=
EXTT0=
EXTT1=
EXTT2=
EXTT3=
EXTT4=
EXTT5=
EXTT6=
EXTT7=
EXTT8=
EXTT9=
EXTT10=
PLAYORDER=
